<svg id="Calque_1" data-name="Calque 1" xmlns="http://www.w3.org/2000/svg" viewBox="0 0 1025.97 302.51"><defs><style>.cls-1{fill:#282c5d;}.cls-2{fill:#a81735;}.cls-3{fill:#7c1332;}.cls-4{fill:#fff;}.cls-5{fill:#898888;}.cls-6{fill:#282d5e;}</style></defs><path class="cls-1" d="M189.82,196.26a77.68,77.68,0,1,0-77.67,77.68,77.66,77.66,0,0,0,77.67-77.68"/><path class="cls-2" d="M178,36.12a61.19,61.19,0,0,0-57.15,82.95A77.73,77.73,0,0,1,180,158.39a61.12,61.12,0,0,0,59.2-61.12h0A61.12,61.12,0,0,0,178,36.12"/><path class="cls-3" d="M120.88,119.07A61.13,61.13,0,0,0,178,158.42q1,0,1.95,0a77.73,77.73,0,0,0-59.1-39.32"/><path class="cls-4" d="M178,30.49h0a66.83,66.83,0,0,0-63.29,88.14q3.11.11,6.14.44a61.16,61.16,0,1,1,118.3-21.8h5.63A66.77,66.77,0,0,0,178,30.49m66.77,66.78h-5.63a60.8,60.8,0,0,1-4.81,23.8A61.14,61.14,0,0,1,180,158.39q1.5,2.69,2.79,5.49A66.34,66.34,0,0,0,204,158.8a66.8,66.8,0,0,0,40.79-61.53"/><path class="cls-5" d="M114.74,118.63c.53,1.57,1.12,3.12,1.76,4.63A66.8,66.8,0,0,0,178,164.05h0c1.59,0,3.18-.06,4.74-.17q-1.29-2.81-2.79-5.49-1,0-1.95,0a60.8,60.8,0,0,1-23.8-4.81,61.24,61.24,0,0,1-33.35-34.54q-3-.33-6.14-.44"/><path class="cls-4" d="M242,97.27h2.82a66.8,66.8,0,1,0-11.41,37.34,66.58,66.58,0,0,0,11.41-37.34h-5.63a60.8,60.8,0,0,1-4.81,23.8A61.14,61.14,0,0,1,178,158.42a60.8,60.8,0,0,1-23.8-4.81,61.14,61.14,0,0,1-37.35-56.34,61.15,61.15,0,1,1,122.3,0Z"/><path class="cls-4" d="M53.93,190.62H51.86a.71.71,0,0,0-.78.78v1.4H45.54v-5.08c0-1.82.64-2.46,2.46-2.46H66.26c1.82,0,2.46.64,2.46,2.46v5.08H63.19v-1.4a.71.71,0,0,0-.79-.78H60.33V210.8h-6.4Z"/><path class="cls-4" d="M100.06,191a.71.71,0,0,0-.79-.78H92.2l-9.73-5.36h21.37c1.82,0,2.61.79,2.61,2.61v13.8a4.11,4.11,0,0,0,8.22,0v-13.8c0-1.82.78-2.61,2.6-2.61h21.16l-9.27,5.36h-7.31a.71.71,0,0,0-.79.78v10.45c0,5.75-4.14,9.82-10.47,9.82s-10.53-4.07-10.53-9.82Z"/><path class="cls-4" d="M153.14,191.4a.71.71,0,0,0-.78-.78h-1.54v-5.36h6.11c1.82,0,2.61.78,2.61,2.6v7.62h8.64v-7.62c0-1.82.79-2.6,2.61-2.6h6.11v5.36h-1.54a.71.71,0,0,0-.78.78v19.4h-6.4v-10h-8.64v10h-6.4Z"/><path class="cls-4" d="M82.8,205.33c3.72,0,6.72-3.21,6.72-7.46a6.73,6.73,0,1,0-13.44,0c0,4.25,3,7.46,6.72,7.46m0-20.5c7.72,0,13.36,5.71,13.36,13a13.36,13.36,0,0,1-26.72,0c0-7.33,5.64-13,13.36-13"/><path class="cls-4" d="M138.17,184.83c3,0,9.79,1.18,9.79,6v3.36h-5.71v-1.39c0-1.46-2.29-2-3.93-2-3.72,0-6.72,2.4-6.72,7,0,4.18,3.11,7.57,6.86,7.57a10.4,10.4,0,0,0,7.29-3.25l3.25,4.58a14.68,14.68,0,0,1-10.65,4.57c-8.07,0-13.39-5.79-13.39-13.47,0-7.32,5.61-12.93,13.21-12.93"/><path class="cls-4" d="M242,97.27h4.74A68.75,68.75,0,1,0,235,135.68a68.47,68.47,0,0,0,11.74-38.41h-9.47a59,59,0,1,1-2.67-17.61,59.08,59.08,0,0,1,2.67,17.61Z"/><path class="cls-4" d="M150.71,94.33a2.32,2.32,0,0,0-2.33-2.21h-3c-.31,0-.42.15-.42.42v3.93c0,.27.11.38.42.38h3a2.28,2.28,0,0,0,2.33-2.17Zm-2.33,7.29h-3c-.31,0-.42.11-.42.38v9a.34.34,0,0,1-.38.38H140a.34.34,0,0,1-.38-.38V87.77a.34.34,0,0,1,.38-.38h8.43c4.65,0,7.59,2.82,7.59,7.36,0,3.89-3,6.87-7.59,6.87"/><path class="cls-4" d="M182.73,111.42h-4.54a.35.35,0,0,1-.39-.38V87.77a.35.35,0,0,1,.39-.38h4.54a.38.38,0,0,1,.42.38V111c0,.27-.16.38-.42.38"/><path class="cls-4" d="M204.43,111.42h-3.89a.49.49,0,0,1-.42-.27l-6.26-11.51a15.84,15.84,0,0,1-.8-1.87l-.15,0c.11,1.38.23,4.35.23,7.9V111c0,.27-.12.38-.38.38h-4.5a.35.35,0,0,1-.39-.38V87.77a.35.35,0,0,1,.39-.38h4a.44.44,0,0,1,.42.23l6.26,11.71a18.19,18.19,0,0,1,.8,1.87l.15,0c-.08-1.52-.19-4.77-.19-8V87.77c0-.26.08-.38.34-.38h4.43a.34.34,0,0,1,.38.38V111c0,.27-.11.38-.38.38"/><path class="cls-4" d="M222.36,92.12h-4.2c-.34,0-.46.15-.46.42V111c0,.27-.11.38-.34.38h-4.54a.34.34,0,0,1-.38-.38V92.54c0-.27-.08-.42-.42-.42h-4.2c-.23,0-.38-.08-.38-.34v-4a.34.34,0,0,1,.38-.38h14.54a.33.33,0,0,1,.34.38v4c0,.26-.12.34-.34.34"/><path class="cls-4" d="M165.76,97a7.49,7.49,0,0,1,5.62,2.52,7.53,7.53,0,1,0-11.24,0A7.5,7.5,0,0,1,165.76,97"/><path class="cls-4" d="M165.76,102a7.54,7.54,0,0,1-5.62-2.52,7.54,7.54,0,1,0,11.24,0,7.52,7.52,0,0,1-5.62,2.52"/><path class="cls-2" d="M298.42,105.43a174.86,174.86,0,0,0-2.31,28.19q0,14,1.93,22.91t4.89,8.89q2.19,0,9.14-7.86t14-21.24a138.6,138.6,0,0,0,11.2-29.22q.9-3.85,2.57-3.86,2.44,0,4.76,3.86a13.45,13.45,0,0,1,2.32,6.57,3.84,3.84,0,0,1-.51,1.93,31.57,31.57,0,0,0-3.54,8.3,89.55,89.55,0,0,0-2.51,12.17,169,169,0,0,0-2.06,24.2,71,71,0,0,0,2.31,18.66l-9.39,2.45q-.64-3.34-1-6.7a57.72,57.72,0,0,1-.39-6.69q0-16.1,5.67-39.78-6.18,10.69-12.3,19.89t-12.29,17.32q-12.11,16-15.71,16-2.56,0-4-8.37c-.43-2.75-.75-6-1-9.65s-.32-7.86-.32-12.49.06-9.27.19-13.9.28-9.31.45-14q-13.51,37.2-27.29,58.57l-8.75-3.35a166.05,166.05,0,0,0,22.72-35.79q8.29-18.15,9.2-34.24ZM403.53,131.3a130.16,130.16,0,0,1-6.95,25.62q-2.19,5.54-5.22,11.46t-6.88,12.35q4.11-1,7.4-1.67a40.53,40.53,0,0,1,5.73-.77l.25,2.19a46,46,0,0,0-15.32,4.63q-9.9,14.16-17,14.16a8.72,8.72,0,0,1-5.6-1.61,5.38,5.38,0,0,1-2-4.44q0-5.4,20.59-11.71,2.19-5,3.87-9.66t3-9l-.78-.26a74.07,74.07,0,0,1-14.41,11.85q-6.7,4-11.33,4T352,175.71a13.1,13.1,0,0,1-1.55-2.31,4.77,4.77,0,0,1-.51-2.13,7.78,7.78,0,0,1,.45-2.44c.3-.9.71-2,1.22-3.29a112.59,112.59,0,0,0,8-31.41l10.69-2.7q-3.09,16.22-11.59,35.4l6.57,5.92q13.24-6.69,19.95-15.57t9.65-23.56Z"/><path class="cls-6" d="M475.47,109.22v13.83H454.31v61.36H436.86V123.05H415.71V109.22Z"/><path class="cls-6" d="M496.63,130.06A31,31,0,0,1,507.72,132a24.44,24.44,0,0,1,8.59,5.47,24.82,24.82,0,0,1,5.58,8.65,31.29,31.29,0,0,1,2,11.43,31.8,31.8,0,0,1-2,11.53,25,25,0,0,1-5.58,8.73,24.42,24.42,0,0,1-8.59,5.52,30.56,30.56,0,0,1-11.09,1.93,30.94,30.94,0,0,1-11.18-1.93,25,25,0,0,1-8.67-5.52,24.51,24.51,0,0,1-5.62-8.73,31.58,31.58,0,0,1-2-11.53,31.08,31.08,0,0,1,2-11.43,24.35,24.35,0,0,1,5.62-8.65,25.06,25.06,0,0,1,8.67-5.47A31.37,31.37,0,0,1,496.63,130.06Zm0,43.3q5.52,0,8.12-3.89t2.61-11.85q0-7.94-2.61-11.81t-8.12-3.88q-5.69,0-8.31,3.88t-2.63,11.81q0,7.95,2.63,11.85T496.63,173.36Z"/><path class="cls-6" d="M547.92,130.89v34a9.29,9.29,0,0,0,1.81,6.14,6.52,6.52,0,0,0,5.31,2.17,11.29,11.29,0,0,0,4.93-1.09,18.36,18.36,0,0,0,4.47-3V130.89h16v53.52h-9.91a3.77,3.77,0,0,1-3.93-2.69l-1-3.09a30.84,30.84,0,0,1-3.2,2.71,19.74,19.74,0,0,1-3.53,2.06,20.69,20.69,0,0,1-4,1.34,21.39,21.39,0,0,1-4.75.49,18.83,18.83,0,0,1-7.77-1.52,15.89,15.89,0,0,1-5.7-4.26,18.46,18.46,0,0,1-3.51-6.45,26.66,26.66,0,0,1-1.19-8.15v-34Z"/><path class="cls-6" d="M631.73,143.59a9.08,9.08,0,0,1-1.39,1.39,3.12,3.12,0,0,1-1.91.52,4.08,4.08,0,0,1-2.14-.57l-2.15-1.27a16.84,16.84,0,0,0-2.78-1.26,12,12,0,0,0-4-.57,11.16,11.16,0,0,0-5.08,1.08,9.4,9.4,0,0,0-3.53,3.1,14.21,14.21,0,0,0-2.07,4.93,29.28,29.28,0,0,0-.67,6.58q0,7.69,3,11.82a9.51,9.51,0,0,0,8.18,4.13,11.29,11.29,0,0,0,4.41-.7,13.23,13.23,0,0,0,2.76-1.55l2.09-1.57a3.89,3.89,0,0,1,2.4-.73,3.31,3.31,0,0,1,2.89,1.4l4.65,5.73a25.52,25.52,0,0,1-5.22,4.62,26.31,26.31,0,0,1-5.6,2.78,29,29,0,0,1-5.75,1.4,43.77,43.77,0,0,1-5.63.38,24.23,24.23,0,0,1-9.36-1.85A23,23,0,0,1,597,178a25.71,25.71,0,0,1-5.36-8.69,32.49,32.49,0,0,1-2-11.77,32.84,32.84,0,0,1,1.73-10.81,24.36,24.36,0,0,1,5.11-8.72,23.72,23.72,0,0,1,8.36-5.81,29.28,29.28,0,0,1,11.53-2.12,28.1,28.1,0,0,1,11,2A26.37,26.37,0,0,1,636,138Z"/><path class="cls-6" d="M643.6,184.41V107.15h16v28.44a25.85,25.85,0,0,1,6.27-4,19.43,19.43,0,0,1,8.07-1.53,18.64,18.64,0,0,1,7.77,1.53,16,16,0,0,1,5.71,4.23,18.43,18.43,0,0,1,3.5,6.45,26.45,26.45,0,0,1,1.19,8.13v34h-16v-34a9.4,9.4,0,0,0-1.8-6.12,6.51,6.51,0,0,0-5.32-2.19,11.22,11.22,0,0,0-5,1.13,19.44,19.44,0,0,0-4.44,3.05v38.14Z"/><path class="cls-6" d="M721.45,159.27v25.14H704V109.22h26.53a43.7,43.7,0,0,1,13.65,1.88,26.15,26.15,0,0,1,9.39,5.19,20.21,20.21,0,0,1,5.44,7.79,26.41,26.41,0,0,1,1.76,9.7A28.39,28.39,0,0,1,759,144.1a20.59,20.59,0,0,1-5.52,8.05,25.93,25.93,0,0,1-9.42,5.24,43,43,0,0,1-13.49,1.88Zm0-13.16h9.09q6.81,0,9.8-3.25t3-9.08a13.55,13.55,0,0,0-.77-4.7,9.54,9.54,0,0,0-2.35-3.63,10.48,10.48,0,0,0-4-2.35,17.58,17.58,0,0,0-5.7-.83h-9.09Z"/><path class="cls-6" d="M792.57,130.06A31,31,0,0,1,803.66,132a23.95,23.95,0,0,1,14.17,14.12,31.29,31.29,0,0,1,2,11.43,31.8,31.8,0,0,1-2,11.53,24.83,24.83,0,0,1-5.58,8.73,24.42,24.42,0,0,1-8.59,5.52,30.56,30.56,0,0,1-11.09,1.93,30.94,30.94,0,0,1-11.18-1.93,25,25,0,0,1-8.67-5.52,24.51,24.51,0,0,1-5.62-8.73,31.58,31.58,0,0,1-2-11.53,31.08,31.08,0,0,1,2-11.43,24.35,24.35,0,0,1,5.62-8.65,25.06,25.06,0,0,1,8.67-5.47A31.37,31.37,0,0,1,792.57,130.06Zm0,43.3q5.52,0,8.12-3.89t2.61-11.85q0-7.94-2.61-11.81t-8.12-3.88q-5.69,0-8.31,3.88t-2.63,11.81q0,7.95,2.63,11.85T792.57,173.36Z"/><path class="cls-6" d="M847.27,116.23a8.4,8.4,0,0,1-.78,3.59,9.34,9.34,0,0,1-2.11,2.94,10.41,10.41,0,0,1-3.12,2,9.9,9.9,0,0,1-3.8.74,9.1,9.1,0,0,1-3.66-.74,10.19,10.19,0,0,1-3-2,9.22,9.22,0,0,1-2.07-2.94,8.84,8.84,0,0,1-.74-3.59,9.17,9.17,0,0,1,.74-3.66,9.43,9.43,0,0,1,2.07-3,9.82,9.82,0,0,1,3-2,9.26,9.26,0,0,1,3.66-.72,9.85,9.85,0,0,1,6.92,2.74,9.55,9.55,0,0,1,2.11,3A8.71,8.71,0,0,1,847.27,116.23Zm-1.86,14.66v53.52h-16V130.89Z"/><path class="cls-6" d="M858.62,184.41V130.89h9.91a4.38,4.38,0,0,1,2.5.67,3.58,3.58,0,0,1,1.42,2l.93,3.1a38.16,38.16,0,0,1,3.2-2.68,18.23,18.23,0,0,1,3.53-2.09,21.23,21.23,0,0,1,4.08-1.35,22.35,22.35,0,0,1,4.78-.49,18.63,18.63,0,0,1,7.76,1.53,16,16,0,0,1,5.71,4.23,18.43,18.43,0,0,1,3.5,6.45,26.45,26.45,0,0,1,1.19,8.13v34h-16v-34a9.4,9.4,0,0,0-1.8-6.12,6.51,6.51,0,0,0-5.32-2.19,11.22,11.22,0,0,0-5,1.13,19.44,19.44,0,0,0-4.44,3.05v38.14Z"/><path class="cls-6" d="M937.58,185.23a18.9,18.9,0,0,1-6.74-1.11,13.31,13.31,0,0,1-4.9-3.15,13.45,13.45,0,0,1-3-4.92,19.06,19.06,0,0,1-1-6.45V141.93h-4.54a2.88,2.88,0,0,1-3-3.14v-6.25l8.51-1.65L926,117.83c.41-1.65,1.58-2.47,3.51-2.47h8.36V131h13v10.94h-13v26.58a5,5,0,0,0,.9,3.07,3.05,3.05,0,0,0,2.61,1.22,4.81,4.81,0,0,0,1.47-.19,5.52,5.52,0,0,0,1-.41l.83-.41a2.06,2.06,0,0,1,.9-.18,1.88,1.88,0,0,1,1.16.33,4.37,4.37,0,0,1,.9,1.06l4.85,7.59a21.87,21.87,0,0,1-7,3.48A27.5,27.5,0,0,1,937.58,185.23Z"/></svg>